<?xml version="1.0" encoding="iso-8859-1"?>
<!-- Generator: Adobe Illustrator 19.0.0, SVG Export Plug-In . SVG Version: 6.00 Build 0)  -->
<svg version="1.1" id="Layer_1" xmlns="http://www.w3.org/2000/svg" xmlns:xlink="http://www.w3.org/1999/xlink" x="0px" y="0px"
	 viewBox="0 0 390.161 390.161" style="enable-background:new 0 0 390.161 390.161;" xml:space="preserve">
<g>
	<path style="fill:#FFFFFF;" d="M261.215,262.131c0.517-2.715,1.099-5.947,1.616-8.663c-1.616,1.616-7.564,7.564-8.663,8.663
		H261.215z"/>
	<path style="fill:#FFFFFF;" d="M261.215,126.051h-54.756v56.889h62.319C268.261,162.899,265.546,143.958,261.215,126.051z"/>
	<path style="fill:#FFFFFF;" d="M278.023,283.788c-7.046,22.756-16.291,42.279-28.186,57.471
		c29.802-11.378,55.855-31.418,73.697-57.471H278.023z"/>
	<path style="fill:#FFFFFF;" d="M206.459,39.36v65.034h48.808C243.889,70.261,226.499,45.889,206.459,39.36z"/>
	<path style="fill:#FFFFFF;" d="M268.778,205.178h-62.319v56.889h15.709c7.564-7.046,37.366-36.848,45.511-45.511
		C268.261,212.806,268.778,208.992,268.778,205.178z"/>
	<path style="fill:#FFFFFF;" d="M250.354,47.505c11.378,14.61,21.139,34.133,28.186,56.889h46.093
		C305.627,78.406,280.156,58.301,250.354,47.505z"/>
	<path style="fill:#FFFFFF;" d="M337.045,126.051h-53.139c3.814,17.907,5.947,36.848,6.529,56.889h5.947
		c15.709-19.523,29.285-39.046,40.663-56.372V126.051z"/>
	<path style="fill:#FFFFFF;" d="M283.97,262.131h53.139c8.663-17.325,13.576-36.848,15.192-56.889H306.79
		c-5.43,7.046-11.378,13.576-17.325,20.622C288.301,238.277,286.103,250.754,283.97,262.131z"/>
	<path style="fill:#FFFFFF;" d="M255.267,283.788h-24.372c-7.564,6.529-15.709,13.576-24.372,20.622v44.412
		C226.499,342.293,243.889,317.921,255.267,283.788z"/>
	<path style="fill:#FFFFFF;" d="M39.542,183.004h61.22c0.517-20.04,2.715-39.564,6.529-56.889H54.152
		C46.071,143.44,40.641,162.899,39.542,183.004z"/>
	<path style="fill:#FFFFFF;" d="M67.146,104.394h46.093c7.046-22.756,16.291-42.279,28.186-56.889
		C111.106,58.301,85.635,78.406,67.146,104.394z"/>
	<path style="fill:#FFFFFF;" d="M67.146,283.788c15.192,21.657,35.749,39.046,59.087,50.941c2.198-1.616,4.848-2.715,7.046-4.331
		c-8.145-12.994-15.192-28.703-20.622-46.093H67.146V283.788z"/>
	<path style="fill:#FFFFFF;" d="M107.809,262.131c-3.814-17.907-5.947-36.848-6.529-56.889H39.542
		c1.099,20.04,6.529,39.564,15.192,56.889H107.809z"/>
	<path style="fill:#FFFFFF;" d="M135.994,104.394h48.808V39.36C164.762,45.889,147.372,70.261,135.994,104.394z"/>
	<path style="fill:#FFFFFF;" d="M184.802,126.051h-54.756c-4.331,17.325-6.529,36.848-7.564,56.889h62.319V126.051z"/>
	<path style="fill:#FFFFFF;" d="M184.802,283.788h-48.808c4.331,12.994,9.762,24.372,15.709,34.133
		c11.378-8.145,22.756-16.291,33.034-24.372v-9.762H184.802z"/>
	<path style="fill:#FFFFFF;" d="M184.802,321.154c-6.529,4.848-12.994,9.762-20.04,14.61c6.529,6.529,12.994,10.861,20.04,13.576
		V321.154z"/>
	<path style="fill:#FFFFFF;" d="M324.051,183.004h28.186c-0.517-10.861-2.715-21.657-5.43-32
		C339.243,161.865,331.679,172.661,324.051,183.004z"/>
	<path style="fill:#FFFFFF;" d="M184.802,205.178h-62.319c0.517,20.04,3.232,39.564,7.564,56.889h54.756V205.178z"/>
</g>
<path style="fill:#56ACE0;" d="M195.598,329.299c-74.214,0-134.917-60.703-134.917-134.917S121.384,59.4,195.598,59.4
	S330.58,120.103,330.58,194.382S269.877,329.299,195.598,329.299z"/>
<path style="fill:#194F82;" d="M378.807,12.273c-19.523-21.139-61.22-14.61-116.493,16.808
	c-20.622-8.145-43.378-12.994-66.651-12.994C97.53,15.505,17.303,95.731,17.303,194.382c0,22.756,4.331,44.994,12.477,65.034
	c-32.517,55.273-37.947,96.453-18.424,118.109c22.238,24.954,68.848,9.762,117.075-17.907c20.622,8.663,43.895,13.576,67.749,13.576
	c98.651,0,178.295-80.226,178.295-178.295c0-23.273-4.331-46.093-12.994-66.651C389.085,78.923,400.463,35.028,378.807,12.273z
	 M140.908,47.505c-11.378,14.61-20.622,34.133-27.669,56.889H67.146C85.635,78.406,111.106,58.301,140.908,47.505z M54.734,126.051
	h53.075c-3.814,17.907-5.947,36.848-6.529,56.889H39.542C40.641,162.899,46.071,143.44,54.734,126.051z M100.762,205.178
	c0.517,20.04,2.715,39.564,6.529,56.889H54.152c-8.145-17.325-13.576-36.848-14.61-56.889H100.762z M26.548,361.816
	c-11.895-10.279-5.43-40.663,14.61-78.61c15.192,26.57,37.366,48.808,63.418,64.517C70.96,365.63,41.158,374.293,26.548,361.816z
	 M126.815,334.729c-23.855-11.895-43.895-29.285-59.087-50.941h46.093c4.848,17.907,11.895,33.034,20.04,46.61
	C131.663,332.014,128.948,333.63,126.815,334.729z M184.802,348.822c-7.046-2.198-13.576-7.047-20.04-13.576
	c7.046-4.331,13.576-9.244,20.04-14.093V348.822z M184.802,293.55c-10.861,8.145-21.657,16.808-33.034,24.372
	c-5.947-9.762-11.378-21.139-15.709-34.133h48.808v9.762H184.802z M184.802,262.131h-54.756
	c-4.331-17.325-6.529-36.848-7.564-56.889h62.319V262.131z M184.802,183.004h-62.319c0.517-20.04,3.232-39.564,7.564-56.889h54.756
	V183.004z M184.802,104.394h-48.808c11.378-34.133,28.703-58.505,48.808-65.034V104.394z M363.615,27.4
	c11.378,11.895,5.947,40.081-13.576,76.929c-15.709-25.988-37.366-48.226-63.935-63.935C323.534,22.034,352.819,16.604,363.615,27.4
	z M338.144,126.632c-11.895,17.907-25.471,36.848-41.18,56.372h-5.947c-0.517-20.04-2.715-39.564-6.529-56.889h53.139
	C337.627,126.051,337.627,126.632,338.144,126.632z M323.534,104.394h-45.511c-7.046-22.756-16.291-42.279-28.186-56.889
	C279.639,58.883,305.627,78.923,323.534,104.394z M222.75,262.131h-15.709v-56.889h62.319c0,3.814-0.517,7.564-0.517,11.378
	C260.116,225.218,230.314,255.085,222.75,262.131z M263.348,253.404c-0.517,2.715-1.099,5.947-1.616,8.663h-7.046
	C255.784,261.032,261.732,255.085,263.348,253.404z M206.459,39.36c20.04,6.529,37.366,30.901,48.808,65.034h-48.808V39.36z
	 M206.459,126.051h54.756c4.331,17.325,6.529,36.848,7.564,56.889h-62.319V126.051z M206.459,348.822V304.41
	c8.663-7.046,16.808-14.093,24.372-20.622h24.372C243.889,317.921,226.499,342.293,206.459,348.822z M250.354,341.259
	c11.378-14.61,21.139-34.133,28.186-57.471h46.093C305.627,309.776,280.156,329.881,250.354,341.259z M337.045,262.131h-53.139
	c2.715-11.378,4.331-23.855,5.43-36.848c5.947-6.529,11.378-13.576,17.325-20.04h45.511
	C350.621,225.8,345.772,244.741,337.045,262.131z M324.051,183.004c8.145-10.861,15.709-21.139,22.756-32
	c2.715,10.279,4.849,20.622,5.43,32H324.051z"/>
<g>
</g>
<g>
</g>
<g>
</g>
<g>
</g>
<g>
</g>
<g>
</g>
<g>
</g>
<g>
</g>
<g>
</g>
<g>
</g>
<g>
</g>
<g>
</g>
<g>
</g>
<g>
</g>
<g>
</g>
</svg>
